<svg width="32" height="32" viewBox="0 0 32 32" fill="none" xmlns="http://www.w3.org/2000/svg">
<path d="M11.4285 6.85715H8.38093C7.97679 6.85715 7.5892 7.01769 7.30343 7.30346C7.01766 7.58923 6.85712 7.97682 6.85712 8.38096V25.1429C6.85712 25.547 7.01766 25.9346 7.30343 26.2204C7.5892 26.5061 7.97679 26.6667 8.38093 26.6667H23.619C24.0232 26.6667 24.4107 26.5061 24.6965 26.2204C24.9823 25.9346 25.1428 25.547 25.1428 25.1429V8.38096C25.1428 7.97682 24.9823 7.58923 24.6965 7.30346C24.4107 7.01769 24.0232 6.85715 23.619 6.85715H20.5714" stroke="#646464" stroke-width="2" stroke-linecap="round" stroke-linejoin="round"/>
<path d="M9.90472 22.0952H11.4285M12.9523 5.33334H19.0476C19.4517 5.33334 19.8393 5.49389 20.1251 5.77966C20.4108 6.06543 20.5714 6.45301 20.5714 6.85715C20.5714 7.26129 20.4108 7.64888 20.1251 7.93465C19.8393 8.22042 19.4517 8.38096 19.0476 8.38096H12.9523C12.5482 8.38096 12.1606 8.22042 11.8748 7.93465C11.5891 7.64888 11.4285 7.26129 11.4285 6.85715C11.4285 6.45301 11.5891 6.06543 11.8748 5.77966C12.1606 5.49389 12.5482 5.33334 12.9523 5.33334V5.33334ZM14.4762 12.9524H22.0952H14.4762ZM14.4762 17.5238H22.0952H14.4762ZM14.4762 22.0952H22.0952H14.4762ZM9.90472 12.9524H11.4285H9.90472ZM9.90472 17.5238H11.4285H9.90472Z" stroke="#646464" stroke-width="2" stroke-linecap="round" stroke-linejoin="round"/>
</svg>
