<svg width="18" height="16" viewBox="0 0 18 16" fill="none" xmlns="http://www.w3.org/2000/svg">
<path d="M11.8125 8C11.8125 8.66304 11.5162 9.29893 10.9887 9.76777C10.4613 10.2366 9.74592 10.5 9 10.5C8.25408 10.5 7.53871 10.2366 7.01126 9.76777C6.48382 9.29893 6.1875 8.66304 6.1875 8C6.1875 7.33696 6.48382 6.70107 7.01126 6.23223C7.53871 5.76339 8.25408 5.5 9 5.5C9.74592 5.5 10.4613 5.76339 10.9887 6.23223C11.5162 6.70107 11.8125 7.33696 11.8125 8Z" fill="black"/>
<path d="M0 8C0 8 3.375 2.5 9 2.5C14.625 2.5 18 8 18 8C18 8 14.625 13.5 9 13.5C3.375 13.5 0 8 0 8ZM9 11.5C10.0443 11.5 11.0458 11.1313 11.7842 10.4749C12.5227 9.8185 12.9375 8.92826 12.9375 8C12.9375 7.07174 12.5227 6.1815 11.7842 5.52513C11.0458 4.86875 10.0443 4.5 9 4.5C7.95571 4.5 6.95419 4.86875 6.21577 5.52513C5.47734 6.1815 5.0625 7.07174 5.0625 8C5.0625 8.92826 5.47734 9.8185 6.21577 10.4749C6.95419 11.1313 7.95571 11.5 9 11.5Z" fill="black"/>
</svg>
