<svg width="32" height="32" viewBox="0 0 32 32" fill="none" xmlns="http://www.w3.org/2000/svg">
<path d="M16 17.3333C16.7364 17.3333 17.3334 16.7364 17.3334 16C17.3334 15.2636 16.7364 14.6667 16 14.6667C15.2636 14.6667 14.6667 15.2636 14.6667 16C14.6667 16.7364 15.2636 17.3333 16 17.3333Z" fill="#646464"/>
<path d="M21.3333 17.3333C22.0697 17.3333 22.6667 16.7364 22.6667 16C22.6667 15.2636 22.0697 14.6667 21.3333 14.6667C20.597 14.6667 20 15.2636 20 16C20 16.7364 20.597 17.3333 21.3333 17.3333Z" fill="#646464"/>
<path d="M10.6666 17.3333C11.403 17.3333 12 16.7364 12 16C12 15.2636 11.403 14.6667 10.6666 14.6667C9.93027 14.6667 9.33331 15.2636 9.33331 16C9.33331 16.7364 9.93027 17.3333 10.6666 17.3333Z" fill="#646464"/>
<path d="M24.0493 7.16806C22.0898 5.19279 19.5035 3.9641 16.7364 3.69383C13.9693 3.42355 11.1947 4.12863 8.891 5.68751C6.5873 7.24639 4.89887 9.56137 4.11678 12.2334C3.33469 14.9053 3.50795 17.7669 4.60671 20.3246C4.72122 20.5624 4.7588 20.83 4.71419 21.0901L3.66324 26.1494C3.62275 26.3434 3.63101 26.5444 3.6873 26.7344C3.74358 26.9243 3.84612 27.0973 3.98569 27.2378C4.1001 27.3515 4.23633 27.4409 4.38617 27.5005C4.536 27.5602 4.69633 27.5888 4.8575 27.5847H5.09635L10.2078 26.556C10.4676 26.5248 10.731 26.5619 10.9721 26.6637C13.5261 27.7641 16.3833 27.9376 19.0513 27.1544C21.7193 26.3711 24.0308 24.6801 25.5874 22.373C27.1439 20.0659 27.848 17.2871 27.5781 14.5159C27.3082 11.7446 26.0814 9.15445 24.1091 7.19199L24.0493 7.16806ZM25.0406 17.167C24.8071 18.5951 24.2532 19.9515 23.4206 21.1342C22.588 22.3169 21.4984 23.2951 20.2338 23.9951C18.9692 24.6952 17.5626 25.0988 16.1197 25.1757C14.6768 25.2526 13.2353 25.0007 11.9037 24.439C11.4314 24.2379 10.924 24.1322 10.4108 24.1281C10.1866 24.1296 9.96297 24.1496 9.74205 24.1879L6.37422 24.8696L7.05495 21.4968C7.19053 20.7663 7.10313 20.0119 6.80415 19.3319C6.24332 17.9983 5.99182 16.5546 6.0686 15.1096C6.14537 13.6645 6.54842 12.2558 7.2474 10.9893C7.94638 9.72277 8.92309 8.63155 10.104 7.79773C11.285 6.9639 12.6394 6.40919 14.0653 6.17534C15.562 5.92933 17.0957 6.04375 18.5396 6.50911C19.9834 6.97448 21.2959 7.77743 22.3684 8.85155C23.4409 9.92567 24.2426 11.2401 24.7073 12.6861C25.172 14.1321 25.2862 15.6681 25.0406 17.167Z" fill="#646464"/>
</svg>
